<svg xmlns="http://www.w3.org/2000/svg" width="70" height="70"><style type="text/css">.st0{fill:#996fab}.st1{fill:#7f4b96}</style><g><title>background</title><rect id="canvas_background" width="72" height="72" x="-1" y="-1" fill="none"/></g><g><title>Layer 1</title><g id="svg_1" stroke="null"><polygon id="svg_2" stroke="null" points="35 26.8 35 43.2 44.9 39.3 44.9 30.5" class="st0"/><path id="svg_3" stroke="null" d="m25.1,29.2l0,11.2l7.9,2.7l0,-16.3l-7.9,2.4zm1.8,10.6l-1.2,-0.4l0,-8.9l1.2,-0.4l0,9.7zm2.3,0.8l-1.8,-0.5l0,-10.2l1.8,-0.5l0,11.2zm2.7,1l-2.2,-0.7l0,-11.8l2.2,-0.7l0,13.2z" class="st1"/><polygon id="svg_4" stroke="null" points="11 26.8 11 43.2 20.9 39.3 20.9 30.5" class="st0"/><path id="svg_5" stroke="null" d="m1.1,29.2l0,11.2l7.9,2.7l0,-16.3l-7.9,2.4zm1.8,10.6l-1.2,-0.4l0,-8.9l1.2,-0.4l0,9.7zm2.3,0.8l-1.8,-0.5l0,-10.2l1.8,-0.5l0,11.2zm2.8,1l-2.2,-0.7l0,-11.8l2.2,-0.7l0,13.2z" class="st1"/><polygon id="svg_6" stroke="null" points="58.8 26.8 58.8 43.2 68.9 39.3 68.9 30.5" class="st0"/><path id="svg_7" stroke="null" d="m49.1,29.2l0,11.2l7.9,2.7l0,-16.3l-7.9,2.4zm1.8,10.6l-1.2,-0.4l0,-8.9l1.2,-0.4l0,9.7zm2.3,0.8l-1.8,-0.5l0,-10.2l1.8,-0.5l0,11.2zm2.7,1l-2.2,-0.7l0,-11.8l2.2,-0.7l0,13.2z" class="st1"/><polygon id="svg_8" stroke="null" points="22.1 43.6 22.1 60 32.2 56.1 32.2 47.3" class="st0"/><path id="svg_9" stroke="null" d="m12.2,46l0,11.2l7.9,2.7l0,-16.3l-7.9,2.4zm1.9,10.6l-1.2,-0.4l0,-8.9l1.2,-0.4l0,9.7zm2.3,0.8l-1.8,-0.5l0,-10.2l1.8,-0.5l0,11.2zm2.7,1l-2.1,-0.7l0,-11.8l2.2,-0.7l0,13.2l-0.1,0z" class="st1"/><polygon id="svg_10" stroke="null" points="46.5 43.6 46.5 60 56.5 56.1 56.5 47.3" class="st0"/><path id="svg_11" stroke="null" d="m36.6,46l0,11.2l7.9,2.7l0,-16.3l-7.9,2.4zm1.9,10.6l-1.2,-0.4l0,-8.9l1.2,-0.4l0,9.7zm2.2,0.8l-1.8,-0.5l0,-10.2l1.8,-0.5l0,11.2zm2.8,1l-2.2,-0.7l0,-11.8l2.2,-0.7l0,13.2z" class="st1"/><polygon id="svg_12" stroke="null" points="22.1 10 22.1 26.4 32.2 22.5 32.2 13.7" class="st0"/><path id="svg_13" stroke="null" d="m12.2,12.4l0,11.2l7.9,2.7l0,-16.3l-7.9,2.4zm1.9,10.6l-1.2,-0.4l0,-8.9l1.2,-0.4l0,9.7zm2.3,0.8l-1.8,-0.5l0,-10.2l1.8,-0.5l0,11.2zm2.7,1l-2.1,-0.7l0,-11.8l2.2,-0.7l0,13.2l-0.1,0z" class="st1"/><polygon id="svg_14" stroke="null" points="46.5 10 46.5 26.4 56.5 22.5 56.5 13.7" class="st0"/><path id="svg_15" stroke="null" d="m36.6,12.4l0,11.2l7.9,2.7l0,-16.3l-7.9,2.4zm1.9,10.6l-1.2,-0.4l0,-8.9l1.2,-0.4l0,9.7zm2.2,0.8l-1.8,-0.5l0,-10.2l1.8,-0.5l0,11.2zm2.8,1l-2.2,-0.7l0,-11.8l2.2,-0.7l0,13.2z" class="st1"/></g></g></svg>