<svg xmlns="http://www.w3.org/2000/svg" width="51" height="51"><style type="text/css">.st0{fill:#4052d7}.st1{fill:#387efa}</style><title>providers-resize</title><g><title>background</title><rect id="canvas_background" width="53" height="53" x="-1" y="-1" fill="none"/></g><g><title>Layer 1</title><g id="svg_1"><polygon id="svg_2" points="37.3 29.6 47.5 36.1 47.5 12.4 27.5 .9 27.5 12.6 37.3 18.3" class="st0"/><polygon id="svg_3" points="35.1 33 25.4 38.7 13.6 31.8 13.6 18 23.4 12.3 23.4 .5 3.5 12.1 3.5 37.7 25.4 50.5 44.7 39.2" class="st1"/><path id="svg_4" d="m30.4,31.7l-1.8,0l-4.8,-6.4l-1.4,1.2l0,5.2l-1.5,0l0,-13.2l1.5,0l0,6.5l6,-6.5l1.8,0l-5.3,5.7l5.5,7.5z" class="st0"/></g></g></svg>